<?xml version="1.0" encoding="utf-8"?>
<!-- Generator: Adobe Illustrator 26.3.1, SVG Export Plug-In . SVG Version: 6.00 Build 0)  -->
<svg version="1.1" id="Layer_1" xmlns="http://www.w3.org/2000/svg" xmlns:xlink="http://www.w3.org/1999/xlink" x="0px" y="0px"
	 viewBox="0 0 1280 1024" style="enable-background:new 0 0 1280 1024;" xml:space="preserve">
<g>
	<path d="M640,540.9c-52.6,0-105.3,0-157.9,0.1c-3.4,0-4.1-0.7-4.1-4.1c0.2-17.3,0.2-34.6,0-51.9c0-2.5,0.6-3.1,3.1-3.1
		c105.9,0.1,211.9,0.1,317.8,0c2.5,0,3.1,0.6,3.1,3.1c-0.1,17.5-0.2,34.9,0,52.4c0,3-0.6,3.6-3.6,3.6
		C745.6,540.9,692.8,540.9,640,540.9z"/>
	<path style="fill:#FDFDFD;" d="M497.1,511.8c0-1.7-0.2-3.3,0.1-4.9c0.4-2.1-1.6-5.6,1.2-6.1c3.9-0.7,8.4-1.3,11.8,1.8
		c2.3,2.1,2.9,5,0.9,7.6c-1.2,1.6,0,2.2,0.6,3.3c2.4,4.3,0.1,8.8-4.8,9.5c-0.2,0-0.3,0-0.5,0C497.1,523.8,497.1,523.8,497.1,511.8z"
		/>
	<path style="fill:#F9F9F9;" d="M762.1,511.7c0-0.3,0-0.7,0-1c0-11.3,0.4-11.6,11.9-10.3c2,0.2,2.5,1,2.5,2.8c0,2-1.4,1.7-2.6,2
		c-2.1,0.6-5.9-2-6.1,1.8c-0.2,4.4,3.9,1.9,6,2.3c1.8,0.4,2,1.2,2.1,2.7c0.1,1.7-0.8,1.9-2.1,1.9c-0.5,0-1-0.1-1.5,0
		c-1.7,0.6-4.9-1.6-4.7,2.3c0.2,3.6,3.3,1.6,5,2.1c1.7,0.4,4.3-1.1,4.2,2.5c-0.1,3.7-2.9,2-4.4,2C762.1,523.1,762.1,523,762.1,511.7
		z"/>
	<path style="fill:#FBFBFB;" d="M581.8,524.2c-7.7-4.4-14.6-6.5-21.4,0.5c-0.1-0.7-0.3-1.4-0.4-2.1c2.5-6.7,4.9-13.5,7.4-20.2
		c0.5-1.5,1.5-1.9,3.1-1.9c1.7,0,2.8,0.5,3.4,2.1C576.3,509.2,578.7,515.9,581.8,524.2z"/>
	<path style="fill:#F9F9F9;" d="M711.1,512c0-1.7-0.4-3.4,0.1-4.9c0.6-2.2-2.5-6,2.6-6.5c8-0.8,12.6,1.3,13.8,6.5
		c0.9,4-1.4,8-5.6,9.2c-3.2,0.8-6.6,0.6-5.7,5.7c0.3,1.8-2,1-3.2,1.1c-1.5,0.2-2-0.6-2-2C711.2,517.9,711.1,514.9,711.1,512z"/>
	<path style="fill:#FCFCFC;" d="M612.2,509.4c0,2,0.1,4,0,6c-0.3,4.9-3.5,7.7-8.5,7.8c-5.1,0-8.4-2.7-8.7-7.6c-0.2-4,0-8-0.1-12
		c0-1.8,0.1-3.1,2.6-3.2c2.4,0,2.7,1.1,2.7,3c-0.1,3.2,0,6.3,0,9.5c0,2.6,0.2,5.4,3.6,5.3c3.1-0.1,3.4-2.6,3.4-5.1
		c0-3.2,0-6.3,0-9.5c0-1.7-0.2-3.2,2.4-3.2c2.8,0,2.9,1.5,2.8,3.5C612.1,505.7,612.2,507.5,612.2,509.4
		C612.2,509.4,612.2,509.4,612.2,509.4z"/>
	<path style="fill:#FAFAFA;" d="M529.9,511.7c0-0.3,0-0.7,0-1c0-11.3,0.4-11.7,11.9-10.3c1.6,0.2,2.3,0.6,2.4,2.3
		c0.1,2.1-0.8,2.6-2.6,2.4c-1.5-0.1-3,0-4.5,0c-1.6-0.1-2,0.8-1.9,2.2c0,1.3,0.3,2.2,1.9,2.2c1.3-0.1,2.7,0.1,4,0
		c1.7-0.1,2.3,0.7,2.3,2.4c0.1,1.8-0.7,2.3-2.4,2.2c-0.3,0-0.7-0.1-1,0c-1.6,0.7-4.8-1.8-4.8,2.1c0,4.3,3.4,1.6,5.2,2.3
		c0.7,0.3,1.7,0,2.5,0.1c1.7,0.2,1.4,1.5,1.5,2.6c0.1,1.2-0.3,1.9-1.6,1.8c-0.3,0-0.7,0-1,0C529.9,523.8,529.9,523.8,529.9,511.7z"
		/>
	<path style="fill:#F3F3F3;" d="M636.6,500.5c2.3,0,4.6,0,7,0c1.6,0,2.4,0.6,2.4,2.3c0,1.8-0.4,3.1-2.4,2.7c-4.8-0.8-4.9,2-4.7,5.5
		c0.2,3.1,0,6.3,0.1,9.4c0.1,1.9-0.5,2.6-2.5,2.6c-2,0-3.1-0.4-3-2.7c0.2-3.8-0.1-7.6,0.1-11.4c0.1-2.6-0.8-3.6-3.4-3.4
		c-1.8,0.2-3.7,0.5-3.7-2.5c0-2.9,1.9-2.6,3.7-2.6C632.3,500.5,634.4,500.5,636.6,500.5z"/>
	<path style="fill:#FCFCFC;" d="M659,500.9c7.1-2.4,6.9,4.2,9.6,7.1c3.3-2.1,2.3-9.7,9.8-6.9c-1.5,2.6-2.8,5.2-4.3,7.6
		c-2.1,3.3-3.4,6.7-2.9,10.7c0.2,1.6,0.7,3.6-2.4,3.6c-2.8,0-3-1.3-2.7-3.3C667.3,512.2,661.4,507.4,659,500.9z"/>
	<path style="fill:#EDEDED;" d="M746.5,511.9c0,2.7-0.1,5.3,0,8c0.1,2.3-0.5,3.2-3,3.2c-2.6,0-2.5-1.4-2.5-3.2c0-5.5,0.1-11,0-16.4
		c0-2,0.4-3.1,2.7-3.1c2.3,0,2.9,1,2.8,3C746.4,506.2,746.5,509.1,746.5,511.9z"/>
	<path style="fill:#0B0B0B;" d="M504.2,513.8c1.7-0.1,3.3,0.1,3.3,2.2c0.1,2.2-1.7,2.6-3.4,2.8c-1.9,0.3-2.1-0.8-2.1-2.4
		C502,514.8,502,513.4,504.2,513.8z"/>
	<path style="fill:#101010;" d="M507.1,507.2c-0.1,1.9-1.2,2.5-2.9,2.7c-1.9,0.2-2.2-0.8-2.1-2.3c0.1-1.2-0.4-2.8,1.8-2.6
		C505.4,505.1,506.8,505.3,507.1,507.2z"/>
	<path style="fill:#0F0F0F;" d="M570.5,508.5c1.1,2.9,1.8,4.8,2.6,6.9c-1.8,0.7-3.3,0.7-5.1,0C568.7,513.3,569.5,511.3,570.5,508.5z
		"/>
	<path style="fill:#1B1B1B;" d="M716.3,509.8c0.1-2.5-0.4-4.5,2.2-4.3c1.9,0.1,3.6,0.7,3.7,3.1c0.1,2.2-1.1,3.2-3.3,3.4
		C716.5,512.1,716.2,510.7,716.3,509.8z"/>
</g>
</svg>
