<?xml version="1.0" encoding="utf-8"?>
<!-- Generator: Adobe Illustrator 26.3.1, SVG Export Plug-In . SVG Version: 6.00 Build 0)  -->
<svg version="1.1" id="Layer_1" xmlns="http://www.w3.org/2000/svg" xmlns:xlink="http://www.w3.org/1999/xlink" x="0px" y="0px"
	 viewBox="0 0 1280 1024" style="enable-background:new 0 0 1280 1024;" xml:space="preserve">
<g>
	<g>
		<path style="fill:#006DB3;" d="M769.9,516c0,3.3,0,6.6,0,9.9c-85.3,0-170.5,0-255.8,0.1c-3.4,0-4.3-0.6-4.1-4.1
			c0.3-7.1,0.3-14.2,0-21.4c-0.1-3,0.6-3.6,3.6-3.6c62.1,0.1,124.2,0.1,186.4,0.1c22.3,0,44.6,0,66.9-0.1c2.5,0,3.2,0.5,3.1,3
			c-0.2,5-0.1,9.9-0.1,14.9c-1.4,0.8-2.1-0.6-3.1-1.1c-0.5-0.2-1-0.4-1.6-0.4c-0.5,0-0.9,0.1-1.1,0.4
			C766,514.9,768.3,514.3,769.9,516z"/>
		<path style="fill:#D1E4F1;" d="M769.9,516c-2.4,0.9-5.9-2.2-7.3,2.2c-0.3,1.1-1.5,0.5-1.7-0.4c-0.5-2.1-1.4-4.5,1.5-5.8
			c0.4-0.1,0.9,0,1.3,0.2c1.5,1,3,0.2,4.4,0c1.2,0.6,0,2.5,1.7,2.7C769.9,515.3,769.9,515.6,769.9,516z"/>
		<path style="fill:#FBFCFD;" d="M550,517c-8.4,9.2-22.8,9.2-30.6-0.1c-1.2-1.5-2-3.4-4.5-3.1c-1.6,0.2-4.5,0.5-3.7-2.3
			c0.7-2.2,3.1-1.7,4.9-0.5c4.5,1.4,8.8,0,13.2-0.5c6.8-0.7,13.5,1,20.3,1C554,513.1,551.3,515.1,550,517z"/>
		<path style="fill:#046FB4;" d="M716.9,518.5c-0.6,0.4-1.3,0.8-1.9,1.2c-1.9,0.7-3.6,0.3-5.3-0.6c-3.6-4.4-3.7-5.6-0.7-10.2
			l-0.1,0.1c2.7-2.3,5.3-2.5,8,0C719.3,512.2,718.7,515.4,716.9,518.5z"/>
		<path style="fill:#ECF3F9;" d="M524.1,508c-0.2-1,0.1-1.6,1.2-1.6c5.9,0,11.8,0,17.6,0c1,0,1.4,0.7,1.2,1.6
			C537.4,510.4,530.8,510.4,524.1,508z"/>
		<path style="fill:#F6F9FC;" d="M551.4,512.1c-9.8,0-19.6-0.1-29.5-0.1c-2,0-4,0.3-5.8-1c3,0,5.9-0.1,8.9-0.1
			c6-2.2,12.1-2.2,18.1,0c2.9,0,5.8,0,8.8,0c1-0.5,1.3,0.1,1.4,0.9C552.7,512.5,552.1,512.6,551.4,512.1z"/>
		<path style="fill:#187ABA;" d="M610.9,512c0.7,0.6,1.4,1.2,2.1,1.9c0,2.2,0.1,4.4-2.3,5.6c-1.4,0.7-2.6,0.3-3.8-0.5l0.1,0.1
			c-2.1-2.4-2.1-4.7,0-7.1L607,512C608.3,511,609.6,510.9,610.9,512z"/>
		<path style="fill:#FCFDFE;" d="M567.6,506.9c3.2,0,6.4,0,11.1,0c-9.2,2.2-3.2,9.1-6.2,13.1C568.7,516.6,575.4,509.1,567.6,506.9z"
		/>
		<path style="fill:#F7FAFC;" d="M737.6,506.4c0,4.6,0,9.2,0,13.9c-0.3,0-0.7,0-1,0c0-4.6,0-9.2,0-13.8
			C736.9,506.4,737.2,506.4,737.6,506.4z"/>
		<path style="fill:#C5DDEE;" d="M716.9,518.5c0.2-3.3,0.3-6.6-0.4-9.9l0,0.1C720.9,511,721.1,515.1,716.9,518.5z"/>
		<path style="fill:#E8F1F8;" d="M709,508.9c-1.1,3.4-1.7,6.8,1.1,9.8c0.3,0.2,0.3,0.5,0.2,0.6c-0.1,0.2-0.2,0.3-0.3,0.3
			c-3.3-0.8-4.1-3.3-4.1-6.2C705.9,511.4,706,509.1,709,508.9z"/>
		<path style="fill:#FCFDFE;" d="M636.8,520.1c-0.1-2.6,0.1-5.3-0.3-7.8c-0.9-5.6,1.9-6.2,6.3-4.9c-0.8,1.7-2.2,0.8-3.4,0.8
			c-1.8,1.4-0.7,3.2-0.7,4.8c0.1,0.3,0.2,0.7,0.2,1C637.4,515.7,640.5,519.1,636.8,520.1z"/>
		<path style="fill:#4694C8;" d="M524.1,508c6.7,0,13.3,0,20,0c-0.2,0.7-0.3,1.4-0.5,2.2c-0.5-0.1-1-0.1-1.5-0.1
			c-5.3-0.1-10.7-0.1-16,0c-0.5,0-1,0.1-1.5,0.1C524.4,509.4,524.3,508.7,524.1,508z"/>
		<path style="fill:#FBFCFE;" d="M751,512.2c-1.7,2.4-0.4,5.4-1.3,8.2c-2.7-4.3-2-8.5,1.2-9.2C751.7,511.5,751.8,511.8,751,512.2z"
		/>
		<path style="fill:#FAFBFD;" d="M667.9,512.8c-1.8,2.3,0.1,5.4-1.9,8.6c-1.2-3.5-0.9-6.4-0.6-9.1c0.2-2,1.7-0.6,2.6-0.4
			c0.3,0.2,0.3,0.5,0.2,0.7C668.1,512.6,668,512.8,667.9,512.8z"/>
		<path style="fill:#2984BF;" d="M551.4,512.1c0.5-0.1,1.1-0.2,1.6-0.3c0.6-0.6,1.2-1.2,2.1-0.6c0.7,0.5,0.4,1.1,0,1.7
			c-0.2,3.3-2.5,3.8-5.1,4.1C548.5,514.8,551.5,513.9,551.4,512.1z"/>
		<path style="fill:#E1EDF6;" d="M623.1,511.6c-6.5,0.7-2.3,6-5.4,7.9C615.9,511.6,616.3,510.6,623.1,511.6z"/>
		<path style="fill:#F8FAFD;" d="M648.9,512.7c-1.9,2.3,0.2,5.5-1.6,8c-1.9-4.3-1.6-7.8,0.6-9.4
			C648.8,511.5,649.2,511.9,648.9,512.7z"/>
		<path style="fill:#E9F2F8;" d="M513.6,499.8c1.4,3.3,2.6,5.6,0.9,8c-0.4,0.5-1.4,0.6-1.8,0C511,505.2,512.5,502.9,513.6,499.8z"/>
		<path style="fill:#FCFCFE;" d="M725,514.1c0,2,0,4,0,7.2c-2.3-5.1-2.1-8.1-0.1-10.1C725.7,512.2,725.6,513.2,725,514.1z"/>
		<path style="fill:#FCFDFE;" d="M743.3,511.2c1.2,2.9,0.9,5.8,0.1,8.8C741.9,517.2,742,514.2,743.3,511.2z"/>
		<path style="fill:#5DA1CE;" d="M543.2,510.9c-6,0.5-12.1,0.5-18.1,0c-0.1-0.3-0.3-0.5-0.5-0.7c0.2-0.1,0.4-0.1,0.6-0.2
			c6-0.7,11.9-0.7,17.9,0c0.2,0.1,0.4,0.1,0.6,0.2C543.4,510.4,543.3,510.6,543.2,510.9z"/>
		<path style="fill:#F2F7FB;" d="M725,514.1c0-0.9-0.1-1.9-0.1-2.8c2.5-0.1,5.5-2.6,6.8,1.7c-0.9,2.2,0.4,4.8-0.8,7
			c-1.4-1.1-0.6-2.7-0.8-4c-0.2-1.4,0.4-3-1.3-3.8C726.9,511.4,725.9,512.8,725,514.1z"/>
		<path style="fill:#F7FAFC;" d="M689.4,520.4c-1.4-3-1-6-0.1-9C690.5,514.3,690.5,517.3,689.4,520.4z"/>
		<path style="fill:#B8D5E9;" d="M607.1,511.9c-0.6,2.4-0.4,4.7,0,7.1C603.3,516.5,603.3,514.1,607.1,511.9z"/>
		<path style="fill:#1F7EBC;" d="M583,519.2c-0.7,0.2-1.4,0.4-2.1,0.6c-1.6-1.1-2.1-2.3-0.8-4L580,516c1.2-1.6,2.6-2.1,4.4-1.1
			C585.5,516.9,584.8,518.2,583,519.2z"/>
		<path style="fill:#FDFDFE;" d="M600.6,505.6c1.1,5.2,1.1,10,0.1,14.1C599.3,516.5,599.2,511,600.6,505.6z"/>
		<path style="fill:#F6F9FC;" d="M672.8,513c1.9,2.4,1.5,5,0.5,8.5c-2-3.2-0.8-6-1.3-8.5C672.3,512.7,672.5,512.7,672.8,513z"/>
		<path style="fill:#D5E6F2;" d="M679.9,520.4c-3.2-2.4-4.6-4.9-0.8-8c0.1,0.2,0.2,0.3,0.4,0.5c-0.2,2-0.8,4.1,0.6,6
			C680.4,519.4,680.4,519.9,679.9,520.4z"/>
		<path style="fill:#C5DDED;" d="M590.4,523c0.4-2,1.3-3.9,0.2-5.9c0.5-0.5,1-0.6,1.5-0.2c0.3,0,0.6,0,0.9,0.1
			c0.3-0.4,0.6-0.4,0.9,0c-0.5,2.4-0.8,4.8-3.2,6.3L590.4,523z"/>
		<path style="fill:#D5E7F2;" d="M716.6,508.7C716.6,508.7,716.6,508.6,716.6,508.7c-2.6-0.5-5.2-0.9-7.7,0.4
			C711.3,505.7,713.6,505.5,716.6,508.7z"/>
		<path style="fill:#EDF4F9;" d="M751,512.2c0-0.3-0.1-0.7-0.1-1c2,0.3,4.8-1.8,5.8,1.8c-0.9,2.3,0.5,4.8-0.8,7
			c-1.6-1.2-0.8-3-0.8-4.4C755.2,512.7,754,511.4,751,512.2z"/>
		<path style="fill:#3088C1;" d="M768.2,512.2c-2,2.4-4,4.9-5.5-0.4c1.1-0.5,2.3-0.5,3.4-0.9C766.8,511.4,767.5,511.8,768.2,512.2z"
		/>
		<path style="fill:#D6E7F2;" d="M533.9,504.8c-2.7-1.7-2.3-3.2-0.9-4.8c0.4-0.5,1.2-1.1,1.6-0.4
			C535.9,501.6,533.7,502.8,533.9,504.8z"/>
		<path style="fill:#EEF5FA;" d="M661.8,518.9c-0.1,0.6-0.2,1.1-0.3,1.7c-0.5-0.3-1-0.5-1.5-0.8c-0.5-0.4-1-0.8-1.3-1.4
			c-0.3-1-0.2-2.1-0.2-3.2c0-0.4,0.2-0.8,0.5-1.1c1.2-0.1-0.8-3.4,1.9-1.9C662.2,514.4,660.9,516.8,661.8,518.9z"/>
		<path style="fill:#BFDAEC;" d="M555.1,512.9c0.1-1.8-1.3-0.9-2.1-1.1c-0.3-0.3-0.7-0.6-1-0.9c0.9-0.4,1.8-0.9,2.7-1
			c0.9-0.2,2.2-1.2,2.6,0C557.6,511.2,557.3,512.9,555.1,512.9z"/>
		<path style="fill:#C7DFEE;" d="M611.1,519c1.4-1.4,0.4-3.8,2-5.2c2.4,3,1.1,4.9-2,6.2c-0.2-0.2-0.3-0.4-0.2-0.7
			C610.9,519.1,611,519,611.1,519z"/>
		<path style="fill:#CCE1EF;" d="M636.8,520.1c1.9-1.6,0.3-4.5,2.2-6.1c0.6,0.1,1.6,0,1.8,0.3c0.5,0.9-0.5,0.4-0.8,0.5
			c-2,0.7-0.9,2.4-1.3,3.7C638.5,519.4,639.1,521.5,636.8,520.1z"/>
		<path style="fill:#DCEBF4;" d="M696,514c2.1,1.5,5.5,2.3,2.9,5.9c-1,0.3-1.3-0.2-1-1.1c0.3-2-2.3-2.2-2.6-3.9
			C695.3,514.4,695.6,514.1,696,514z"/>
		<path style="fill:#98C3E0;" d="M627.3,516.9c1.7,0.3,2.4,1.5,1.2,2.5c-1.2,1-3.1,1.3-3.2-1.4c0.2-0.4,0.4-0.8,0.6-1.2l0.2,0.1
			C626.4,516.6,626.8,516.6,627.3,516.9z"/>
		<path style="fill:#F2F7FB;" d="M583,519.2c0.3-1.4,0.7-2.8,1-4.2c-0.6-0.8-0.6-1.5-0.1-2.3c-0.1-0.3,0-0.6,0.1-0.8L584,512
			c0.3,0,0.7,0.1,1,0.1c1.3,2.1-0.1,4.6,0.8,6.8C585.2,522,583.9,518.7,583,519.2z"/>
		<path style="fill:#F0F6FA;" d="M696,514c-0.2,0.3-0.5,0.6-0.7,0.9c-1.6-3.6-1.5-3.7,3.6-3.8C698,512.4,695.2,511.6,696,514z"/>
		<path style="fill:#0770B5;" d="M746.5,518.8c-0.9-2.3-0.6-4.1,0-5.8C746.5,514.7,746.5,516.4,746.5,518.8z"/>
		<path style="fill:#BBD8EA;" d="M679.9,520.4c0.1-0.5,0.1-1.1,0.2-1.6c1.5,0.8,3.2,0.7,5.8,0.2
			C683.4,521.5,681.7,521.4,679.9,520.4z"/>
		<path style="fill:#B5D4E9;" d="M710,519.7c-0.1-0.3,0-0.6,0.1-0.9c1.6,0.3,3.3,0.6,4.9,1C713.3,522,711.7,521.3,710,519.7z"/>
		<path style="fill:#A2C9E3;" d="M584.1,511.9c-1.3,0.1-2.6,0.4-4.1-1.4c2.1-0.6,3.5-1.3,4,1.5C584,512,584.1,511.9,584.1,511.9z"/>
		<path style="fill:#A7CCE5;" d="M610.9,512c-1.3,0-2.6,0-4,0c0.2-1.5,1.2-2.1,2.6-2C610.8,510.1,611.2,510.8,610.9,512z"/>
		<path style="fill:#D0E3F1;" d="M672.8,513l-0.4,0L672,513c-1.3-0.7-2.7-1.1-4.1-0.2c0-0.3,0-0.7,0.1-1
			C670,510.8,672.2,508.9,672.8,513z"/>
		<path style="fill:#D1E4F1;" d="M679.5,512.8c-0.2-0.1-0.3-0.3-0.4-0.5c1.4-2.5,3.4-1.7,6.3-0.9
			C682.8,512.1,681.2,512.4,679.5,512.8z"/>
		<path style="fill:#CDE2F0;" d="M592.2,516.9c-0.5,0.1-1,0.1-1.5,0.2c-0.7-1.2-1.7-2.3-1.2-4.1
			C591.7,513.5,591.6,515.5,592.2,516.9z"/>
		<path style="fill:#BFDAEB;" d="M594,517l-0.5,0l-0.5,0c0.3-1.4,0.4-2.8,1.9-4.1C595.8,514.7,595.5,515.9,594,517z"/>
		<path style="fill:#FCFDFE;" d="M730.9,520c0.3-2.3-0.4-4.8,0.8-7C731.8,515.4,733.1,517.9,730.9,520z"/>
		<path style="fill:#FCFCFE;" d="M755.9,520.1c0.3-2.3-0.4-4.8,0.8-7C756.8,515.4,758,517.9,755.9,520.1z"/>
		<path style="fill:#D4E6F2;" d="M659.9,517.7c0.1,0.7,0.1,1.4,0.2,2.1c-1.7,0.2-3.3,2.6-5,0.1c0-0.7,0.3-1.3,0.9-1.8
			C657.2,517.7,658.5,517.1,659.9,517.7z"/>
		<path style="fill:#B2D3E8;" d="M697.9,518.8c0.3,0.4,0.7,0.7,1,1.1c-1.4,1.7-3,1.4-4.9,0.4C695,518.4,697,519.9,697.9,518.8z"/>
		<path style="fill:#D3E5F2;" d="M585.9,519c-1.4-2.1-0.7-4.5-0.8-6.8C587,514.2,585.6,516.7,585.9,519z"/>
		<path style="fill:#D9E9F3;" d="M661.8,518.9c-1.3-2.1-0.6-4.4-0.8-6.7C662.9,514.3,661.7,516.7,661.8,518.9z"/>
		<path style="fill:#D9E9F3;" d="M659,514.2c0,0.3,0,0.5,0,0.8c0.4,1.9-0.5,2.7-2.4,2.5c-0.2-0.1-0.4-0.3-0.6-0.4
			C654.8,513.8,657.8,514.9,659,514.2z"/>
		<path style="fill:#F9FBFD;" d="M580.1,515.9c-0.5,1.5,0.2,2.7,0.8,4c-1.2,0.4-2.2,0.2-2.6-1.2C577.8,517.1,579,516.5,580.1,515.9z
			"/>
		<path style="fill:#B1D2E7;" d="M611.1,519c0,0.3,0,0.7,0,1c-1.8,1.5-3.2,1.1-4.1-1.1C608.3,519,609.7,519,611.1,519z"/>
		<path style="fill:#B4D3E8;" d="M648.9,512.7c-0.3-0.5-0.6-0.9-0.9-1.4c1.1-0.1,2.7-1.6,3.2,0.4C651.5,513,649.8,512.6,648.9,512.7
			z"/>
		<path style="fill:#D3E5F2;" d="M584,512.8c0,0.8,0,1.5,0.1,2.3c-1.5-0.2-2.8,0.2-4,1C580.3,513.8,582.8,514.1,584,512.8z"/>
		<path style="fill:#0670B5;" d="M721.3,512.7c0.7,0.9,0.8,2.5,0.2,2.4C720.4,515,721.3,513.6,721.3,512.7z"/>
		<path style="fill:#FCFDFE;" d="M656,518.9c-0.3,0.3-0.7,0.7-1,1c-0.9-0.6-1.1-1.6-0.8-2.5c0.3-1,1.1-0.9,1.9-0.5c0,0-0.1,0-0.1,0
			C656.6,517.6,656.6,518.2,656,518.9z"/>
		<path style="fill:#B3D3E8;" d="M590.4,523c0.2,0,0.3,0.1,0.4,0.2c-0.3,2.1-1.6,2-3.2,1.6C588.2,523.3,589.5,523.4,590.4,523z"/>
		<path style="fill:#CCE1EF;" d="M638.7,513c-1.1-1.8-1.6-3.5,0.7-4.8C638.5,509.7,638.8,511.4,638.7,513z"/>
		<path style="fill:#FDFDFE;" d="M766.1,511c-0.9,1.1-2.1,1.1-3.4,0.9c0,0-0.2,0.1-0.2,0.1C763.2,510.1,764.7,510.5,766.1,511z"/>
		<path style="fill:#A5CBE4;" d="M627.3,516.9c-0.4,0-0.8,0.1-1.2,0.1C626.4,515.8,626.8,516.1,627.3,516.9z"/>
		<path style="fill:#5BA0CE;" d="M625.9,516.8c-0.2,0.4-0.4,0.8-0.6,1.2C625.5,517.6,625.7,517.2,625.9,516.8z"/>
		<path style="fill:#FDFDFE;" d="M543,510c-6,0-11.9,0-17.9,0C531.1,508.4,537.1,508.4,543,510z"/>
		<path style="fill:#0C73B7;" d="M656,518.9c0-0.7-0.1-1.3-0.1-2c1-0.7,2-1.3,3.1-2c1.3,0.6,0.9,1.8,0.9,2.8
			C658.8,518.7,657.7,519.9,656,518.9z"/>
	</g>
</g>
</svg>
