<?xml version="1.0" encoding="utf-8"?>
<!-- Generator: Adobe Illustrator 26.0.2, SVG Export Plug-In . SVG Version: 6.00 Build 0)  -->
<svg version="1.1" id="Layer_1" xmlns="http://www.w3.org/2000/svg" xmlns:xlink="http://www.w3.org/1999/xlink" x="0px" y="0px"
	 viewBox="0 0 1280 1024" style="enable-background:new 0 0 1280 1024;" xml:space="preserve">
<style type="text/css">
	.st0{fill:#E20919;}
	.st1{fill:#E00B19;}
	.st2{fill:#DE0B1A;}
	.st3{fill:#E00A19;}
	.st4{fill:#D4101D;}
	.st5{fill:#D6101C;}
	.st6{fill:#CA1622;}
	.st7{fill:#AA0E18;}
	.st8{fill:#B10F0E;}
	.st9{fill:#E4C1BC;}
	.st10{fill:#AB1625;}
	.st11{fill:#A11A1F;}
	.st12{fill:#AE0607;}
	.st13{fill:#F5CECD;}
	.st14{fill:#B00308;}
	.st15{fill:#9C121C;}
	.st16{fill:#AB1019;}
	.st17{fill:#97282D;}
	.st18{fill:#F5EBEA;}
	.st19{fill:#C90F17;}
	.st20{fill:#F6F1F1;}
</style>
<g>
	<path d="M528.1,623.9c0-73.6,0-147.2-0.1-220.8c0-3.4,0.7-4.1,4.1-4.1c71.9,0.1,143.9,0.1,215.8,0c3.4,0,4.1,0.7,4.1,4.1
		c-0.1,72.3-0.1,144.5,0,216.8c0,3.4-0.7,4.1-4.1,4.1C674.6,623.9,601.4,623.9,528.1,623.9z"/>
	<path class="st0" d="M683.3,478.9c10.3,7.2,14,17.8,14.7,29.7c3.7,10.8,6.3,21.7,3.2,33.2c-1.2,4.3-0.9,8.8-1.2,13.2
		c-0.3,10.3-1.7,20.5-0.5,30.9c0.2,1.4-0.2,3-0.6,4.4c-0.4,1.4-0.9,3-2.7,3.2s-2.7-0.9-3.2-2.5c2.8-13,2.2-26.3,2.3-39.5
		c0-0.6-0.3-0.9-0.7-1.2c-3.2-2.7-10.8-2.9-14.9,0c-1.6,1.2-3.5,1.5-5,2.6c-5.6,3.4-4.4,9.4-5.4,14.5c-0.4,2.2,0.9,5.7-3.3,5.8
		c-1.3-2-0.2-4.2-0.7-6.3c-0.2-3.3-2.2-4.2-5.2-4.7c-6.5-1.2-12.9-2.6-19.3-4.4c-5.9-1.7-7.9-5.1-8.1-11.3c-0.1-3.7-0.5-7.5-5.5-8.7
		c-2.8-0.7-2.4-3.5-1.8-5.8c0.4-1.7,1.5-3.7-1.5-4.1c-1.5-2.6-4.3-4.1-5.5-7.1c-0.9-2.2-1.9-4-0.3-6.4c1-1.5,0.5-3.7-1.2-4.8
		c-2.6-1.8-4.4-4.6-7.6-5.5c-1.7-0.5-3.1-1.5-2.8-3.6c0.3-1.8,1.7-2.8,3.4-3.3c2-0.6,3.9,0,5.9,0.1c4.4,0.2,5.7-1.9,3.5-5.8
		c-1.1-2-0.4-3.4,1.3-4c2.4-0.8,4.6-1.9,7.1-2.4c4.6-1,6.1,0.1,6.9,4.7c0.1,0.8,0,1.8,1,2c1.3,0.3,1.8-0.8,1.8-1.8
		c-0.2-2.9,1.3-4.2,4-4.7c1.2-0.2,2-1,2.5-2.2c1.1-3.2,3.3-5.3,6.7-6.1c1-0.2,2.3-0.6,2.4-1.5c0.9-5.8,6.1-6.6,10-8.8
		c3.4-1.9,5.6-1.5,6.3,2.2c0.9,4.7,3.3,5.9,7.5,5.5C679.1,475.9,681.4,477.1,683.3,478.9z"/>
	<path class="st1" d="M676.9,475c-2.2-0.1-4.3,1.5-6.6-0.6c-1.2-1.1-3.3-1-1.5-3.4c1.2-1.6-0.4-2.7-1.3-3.8c-1.2-1.3-2.5-1-3.4,0.1
		c-1.8,2.3-5.5,0.4-7.2,3.4c-0.7,1.2-2.1,2-2,3.7c0.1,2.6-1.4,3.3-3.7,3.7c-1.9,0.3-4,0.8-4.9,2.9c-1.3,3-2.2,6.3-6.8,6.1
		c-2-0.1-0.4,2.2-0.5,3.3c-0.2,2.2-0.9,3.6-3.3,3.4c-2.4-0.2-3.3-2-2.6-3.9c1.9-5.2-1.9-3.7-4.3-3.8c-2.8-0.2-4.8,2.2-7.7,2.1
		c-1,0-2.7,1.8-0.6,2.5c3,1,2.5,2.5,1.7,4.5c-1.1,2.6-3.3,3.8-6,3.5c-1.8-0.2-3.5-1-5.4-0.8c-1.8,0.2-3.4,1.1-3.5,2.9
		c-0.1,1.7,1.6,1.6,2.8,2.1c4.5,2.1,8.2,5.1,9.8,10.1c0.4,1.3,1.3,2.1-1.1,2.7c-2,0.5-0.8,2.2,0,3.5c1.7,2.9,4.7,4.9,5,8.5
		c-5.4-1.6-8.9-7.9-7.6-14.2c0.6-2.7,0.8-4.2-2.6-3.6c-1.4,0.2-2.9-0.5-3.5-1.6c-4.7-8.3-14.1-11.7-19.6-19
		c-1.2-1.6-4.1-0.8-4.6-3.3c1.4-1.7,2.4-3.6,4.1-5c4.5,1.5,7.4,5.6,11.8,7.3c1.6,0.6,2.7,2.1,5.2,0.9c2.2-1.1,3.5,1.5,4,3.6
		c3.9,1.8,4.5-1,5-3.8c1.5-2.1,3-4.1,4.5-6.2c1.6-1,0.2-4.2,3-4.2c1.4,1.1,0.5,3.3,2.3,4.1c-1.4-1.4-1.4-3.5-2.3-5.1
		c0.2-1.7,1.2-2.4,2.9-2.2c1.9,2.7,1.9,2.7,3.6,0c0.8-1.3,2.7-1.2,3.5-2.5c0.3-0.3,0.7-0.5,1.2-0.6c2.4,0.2,3.6-1.2,4.2-3.3
		c0.5-1.7,0.8-3.4,3.4-2.4c-1.8-1.7-2.7-0.7-3.6,0.8c-0.9,1.6-1.5,4-4.3,2.4c-0.4-1.4,0.1-2.8-0.3-4.2c0-0.7,0.2-1.3,0.6-1.8
		c0.3-0.4,0.7-0.8,0.8-1.3c-0.5,0.4-1,0.8-1.7,0.7c-0.9-0.4-1.4-1.2-1.5-2.2c0.7-2.4,1.1-5,3.6-6.3c2.8,4.1,7.5,6.6,9.8,11.2
		c0.2,0.4,0.4,1,0.8,1.2c3,2.4,14.1,0.2,16.4-2.9c1.5-2,1.8-3.2-0.4-4.8c-2.6-1.8-3.8-4-3.9-7.4c0-2.5-0.1-6-3.8-7.1
		c-0.5-0.2-1.2-1.4-1.1-2.1c1.2-6.9-3.9-10.9-7.2-15.7c-3.5-5.2-3.3-8.9,0.5-13.6c3.5-4.3,8.1-4.3,11.9-0.1
		c3.4,3.8,4.7,8.9,4.5,13.4c-0.4,10.1,2.3,19.4,4.8,28.9c1.5,5.6,0.9,11.6,3.6,16.9c0.7,1.4,2,0.6,3.1,0.8
		C676.1,473.7,677.2,473.5,676.9,475z"/>
	<path class="st2" d="M597,527.4c4.6-1.4,6.6,1.5,9.7,4.4c7.1,6.7,7,14.8,6.7,23.2c-0.1,2.8-0.2,5.6,0.4,8.4c0.4,2,1.3,4.3-1,5.9
		c-1,0.7-2.2,1-3.2,0.3c-2.1-1.5-1.5-3.9-1.4-6c0.1-5,0.2-10,0.3-14.9c0.1-3.4-0.5-6-5-5.2c-1.2,0.2-2.6-0.3-3.9-0.7
		c-3.9-1.3-7.5-2.8-11.9-2.2c-3.7,0.5-6.6-2.2-8.2-5.4c-2.2-4.2,0-6.8,6.6-8.2C589.7,525.7,593.3,526.9,597,527.4z"/>
	<path class="st0" d="M636.1,454.8c-0.9,2.1-1.2,4.6-3.1,6.2c-2.5,0.7-3.3-0.8-3.8-2.7c-1.4-5.1-3.8-9.7-6.9-14
		c-1.2-1.6-2-3.2-4.4-3.5c-2.5-0.3-4.2-2.2-4.8-4.5c-0.8-3-2.8-4.2-5.4-5.2c-4.5-3.8-4.8-10-7.6-14.7c-1-1.7,0.4-3.9,2.2-5.1
		c2.5-1.7,5.1-1.5,7.5,0.1c4.4,2.9,7.4,7.1,9.3,12c1.1,2.9,3.1,5.3,4.4,7.9C627.5,439.3,633,446.5,636.1,454.8z"/>
	<path class="st1" d="M584.2,483.2c-4.9,1.3-8.9,0.3-12.4-3.5c-3.9-4.3-10.1-5.4-14.2-9.5c-2-2.1-4.6-3.7-4.2-7.3
		c0.9-7.6,6-10.4,11.9-5.6c4.7,3.9,11.1,5.3,14.8,10.5c0.8,4.8,1.9,9.4,5.4,13.1C585.6,481.8,585.1,482.6,584.2,483.2z"/>
	<path class="st3" d="M589,458c-4.1-3.3-8.2-6.6-12.2-10c-3.3-2.8-4.9-6.7-6.1-10.6c-1.1-3.4,2.5-5.4,3.8-8.1c1-2.1,4-0.7,5.7,0.6
		c4.4,3.3,9.6,5.8,10.7,12.2c0.7,4.4,5.6,6.5,7.2,10.5c1.7,3.2,1.3,6.6,1,10c-0.2,2.1-1.3,2.4-2.3,1
		C594.9,460.8,591.4,460.3,589,458z"/>
	<path class="st4" d="M607.7,431.2c2.7,0.1,4.4,1.2,5.6,3.9c1.2,2.8,2.8,6.2,7.2,4.5c0.8-0.3,0.9,0.3,1.2,1
		c2.5,6.5,7.9,11.6,8.9,18.9c0.1,0.6,1.6,1.1,2.4,1.6c0.3,0.7,0.7,1.3,1,2c0.7,0.5,1,1.2,1,2c0,1.7,0,3.3,0,5c0.7,1.4-0.3,2.1-1,3
		l0,0c-2.2,1.3-4.2,3-7,3c-1.4,0-2.4,0.7-3,2c0.3,0.2,0.4,0.4,0.3,0.7c-0.1,0.2-0.2,0.3-0.3,0.3c-2.1,0.4-1.4,3.3-3.3,3.9
		c0.7-3.8,1.9-7.2-4.8-5.3c-4,1.1-7.1-2.9-8.8-6.7c-0.6-1.4-0.3-3.1-2.6-3.3c-1.3-0.1-1.8-1.4-1.6-2.7c0.3-1.7,1.8-1,2.8-1.2
		c3-0.3,5.4,1.2,7.5,2.8c3.7,3,7.4,5.6,12,7c3.7,1.1,5.6-1.7,7.7-3.3c2.2-1.7,1-4-1-5.9c-2.2-2.1-2.7-5.3-4.2-7.6
		c-3.6-5.5-3.3-14.2-12.1-15.7c-1.4-0.2-2.4-1.4-2.6-2.7C612.4,435.1,610,433.2,607.7,431.2z"/>
	<path class="st5" d="M666,572.9c2.9-0.8,2.7-3.4,2.9-5.6c0.2-2.8,0.7-5.5,0.9-8.3c0.2-3.6,1.9-5.3,5.1-6.2
		c-5.9,6.6-4.5,14.9-5.1,22.6c-0.7,8.9-0.4,17.9-1.1,26.8c-0.3,3.9,1.2,7.1,2,10.6c-1.7,3.9-3.1,4.3-7.2,2.1c-1.5-2.1-1-4.1,0.2-6.1
		c1.6-4.9,0.7-10,0.5-15c0-3-0.7-6.1,0.7-9c0.9-0.5,0.3-1.8,1.2-2.2c0.6-0.1,0.8,0.4,1.2,0.6c-1.1-2.7,0-5.8-1.7-8.4
		C665.5,574.2,665.4,573.5,666,572.9z"/>
	<path class="st6" d="M589,458c3.8,0.5,6.4,2.9,8.8,5.6c1.4-3.7,0.1-7.3,0.2-11c1.5,1.6,2.8,3.2,2.3,5.7c-1.1,4.9,0.8,9.8,0.8,14.7
		c0,1.5-0.1,3.2,0.1,4.7c0.3,2.3-0.9,3.6-3,3.7c-2.6,0-2.4-2.1-2.3-4c0.1-3.5,0-6.9,0.1-10.4c0.1-2.5-0.5-4.5-3-5.6
		C591.5,460.8,590,459.7,589,458z"/>
	<path class="st7" d="M700,555c-1.4-4.7-0.3-9.3,0.8-13.8c1.4-5.8,1.7-11.4,0.3-17.1c-1.2-5.1-1.1-10.5-3.1-15.4
		c1,1,2.6,1.5,2.7,3.3c0.9,10.6,5.1,21,0.6,31.9C699.8,547.2,701.5,551.3,700,555z"/>
	<path class="st8" d="M694.8,550.3c0.8-0.7,1.1-0.3,1.2,0.5c0.2,12,0.1,24.1-1.2,36c-0.2,1.4-1,2.7-1.6,4.1
		c0.7-9.4,1.9-18.7,1.6-28.2C694.7,558.6,694.8,554.5,694.8,550.3z"/>
	<path class="st9" d="M584.2,483.2c0.3-0.7,0.5-1.5,0.8-2.2c-0.2-1.5,0.4-2.2,1.9-2c1.8-0.4,2.2,1.5,3.3,2.1c-0.6,2.3-0.9,4.9-4.1,5
		C585.4,485.1,584.8,484.1,584.2,483.2z"/>
	<path class="st10" d="M586.9,479c-0.6,0.7-1.3,1.3-1.9,2c-3.6-3.7-5.3-8.1-4.8-13.3c1.2,0.6,1.7,1.8,1.5,2.8
		C581,474.9,583.7,477.1,586.9,479z"/>
	<path class="st11" d="M676.9,475c-1-2-4,0.1-4.9-2.3c5.1-0.4,8.9,1.6,11.3,6.1C680.9,478.1,678.5,477.3,676.9,475z"/>
	<path class="st12" d="M666,583c-0.1,0.8-0.3,1.6-1.1,2c-0.3-6-0.4-12,0.5-18c1,1.9,0.4,4,0.6,6c0,0.7,0,1.3,0,2
		C667.4,577.6,667.4,580.3,666,583z"/>
	<path class="st13" d="M616.2,489.1c-0.1,0.5-0.1,1-0.2,1.4c-0.3,2,4.7,1.2,2.4,3.3c-1.7,1.6-5.1,1.8-7.2-1c0.3-0.6,0.6-1.3,0.9-1.9
		c1.1-0.3,2.2-0.8,2.8-1.9C615.3,489.1,615.8,489.1,616.2,489.1z"/>
	<path class="st14" d="M664.1,593.9c1,5,2,10.1-0.5,15C663.8,603.9,664,598.9,664.1,593.9z"/>
	<path class="st15" d="M597,527.4c-3.7-0.1-7.4-0.3-11.1-0.4C589.7,524.8,593.4,525.6,597,527.4z"/>
	<path class="st16" d="M663.4,615c3,1.3,5.5,1,7.2-2.1c0.8,2.1,0.1,3.5-2.1,4C666.5,617.3,664.3,617.8,663.4,615z"/>
	<path class="st17" d="M614.9,489.1c0.4,1.3,0.6,2.7-0.6,3.4c-1.6,1.1-1.2-1.4-2.2-1.6C611.8,488.6,613.3,488.7,614.9,489.1z"/>
	<path class="st18" d="M643.9,527.3c5.5,3.5,5.5,4.4-0.4,8.5c-0.3,0.2-0.4,0.5-0.6,0.7c-1,1.3-2.2,2.8-4,2.2
		c-1.9-0.6-2.5-2.5-2.8-4.4c-0.1-0.8-0.1-1.7-0.1-2.5C635.9,525.7,638,524.5,643.9,527.3z"/>
	<path class="st19" d="M643.9,527.3c-0.2,0-0.3,0-0.5,0c-6.6-0.3-7.7,1-6.2,7.3c0.9,3.7,2.6,4.7,5.7,2c-0.1,3.4-3.5,3-5.1,4.7
		c0.2-2.8-4.7-3.3-3.1-6.9c0.6-1.3,0.4-2.9,0.3-4.4c-0.1-2.2,0.2-4.2,2.7-4.6C640,524.9,642.7,523.9,643.9,527.3z"/>
	<path class="st20" d="M630.1,484.2c2.2-3.5,5-5.8,7.4-8.3c1.4-1.5,2.9-3.1,5-1.6c1.5,1,4.6,1.8,3.6,3.9c-0.9,1.9-1.8,4.8-4.7,5.2
		C637.8,483.8,634.1,483.9,630.1,484.2z"/>
	<path class="st0" d="M634,473c0.3-1,0.7-2,1-3c2.6-0.3,2.6-2.8,3.6-4.3c1.3-2,2.9-2.2,4.5-0.7c1.1,1,1.2,2.6,0.3,3.6
		c-1.8,2.1-1.2-2.1-2.7-1.1C640.5,472.3,637.8,474.6,634,473z"/>
	<path class="st0" d="M603.1,494.3c-3.3,1-3.3,1-8.8-5.8C599.4,487.6,599.6,493.4,603.1,494.3z"/>
	<path class="st0" d="M627,476.1c2.1-1.6,4.4-2.6,7-3c0.5,1.3,1.2,2.7-1.3,2.3c-1.2-0.2-2.4,0.3-2,1.3c0.5,1.3,2.3,2.5-0.6,2.8
		C627.8,479.7,626.3,478.8,627,476.1z"/>
	<path class="st0" d="M624,479c0-0.3,0-0.7,0-1c1.1,1.7,2.1,3.6,4.4,4.3c-1.3,1.3-2.3,3.7-3.8,2.7C623,483.8,624.3,481.1,624,479z"
		/>
	<path class="st0" d="M635,465c-0.8-0.4-1-1.2-1-2c1.4-0.8,1.5-2.9,3.7-3.4C637.4,461.8,636.4,463.6,635,465z"/>
	<path class="st0" d="M666,583c0-2.7,0-5.3,0-8c4.1,2.6,0.8,6.6,2.1,9.9C666.5,584.9,667.1,583.1,666,583z"/>
</g>
</svg>
