<?xml version="1.0" encoding="utf-8"?>
<!-- Generator: Adobe Illustrator 26.3.1, SVG Export Plug-In . SVG Version: 6.00 Build 0)  -->
<svg version="1.1" id="Layer_1" xmlns="http://www.w3.org/2000/svg" xmlns:xlink="http://www.w3.org/1999/xlink" x="0px" y="0px"
	 viewBox="0 0 1280 1024" style="enable-background:new 0 0 1280 1024;" xml:space="preserve">
<g>
	<g>
		<path style="fill:#FEFEFE;" d="M765.5,535.6c0,3.6,1.4,8.7-0.4,10.5c-1.8,1.8-6.9,0.4-10.6,0.4c-24.3,0-48.5,0-72.8,0
			c-1-3.4-0.4-6.9-0.2-10.3c0.2-4.1,1.7-5.2,5.4-3c10.3,6,19.3-5.3,18.3-13.2c-0.7-6-6-11.5-11.6-11.7c-6.7-0.3-11.4,3.9-12.6,10.8
			c-1.3,7.5-1.1,15.1-0.9,22.7c0,1.6,0.8,3.3-0.5,4.8c-53.7,0-107.5-0.1-161.2,0.1c-4,0-4.5-1.1-4.5-4.7c0.2-12.4,0.1-24.7,0.1-37.1
			c2.3-0.6,3.1,1.3,4.3,2.5c0.5,0.7,1,1.5,1.5,2.2c1.1,1.6,2.2,3.2,3.5,4.6c0.3,0.3,0.5,0.7,0.7,1c0.8,1.5,2.1,2.6,3.3,3.8
			c0.5,0.4,0.9,0.9,1.4,1.4c0.5,0.5,0.8,1.1,0.9,1.8c0.1,0.7-0.1,1.4-0.7,1.9c-0.7,0.3-1.4,0.3-2.1,0.1c-2.7-1.6-5.3-1.3-6.8,1.4
			c-1.6,2.8,0.6,4.7,2.6,6.1c3.8,2.6,7.6,5.2,12.1,6.5c3.3,0.6,6,2.8,9.3,3.3c1.6,0.4,3.1,0.8,4.7,1c2.3,0.9,4.3-0.1,6.3-0.9
			c2.3-0.3,4.4-1.2,6.6-1.9c7-1,12.2-5.4,17.8-9c1.8-1.2,2.6-3.1,1.4-5.1c-1.3-2.2-3.1-1-4.8-0.5c-1.1,0.1-1.8-0.3-2.4-1.2
			c-0.4-1.6,0.8-2.6,1.6-3.7c2.9-2.8,4.8-6.4,7-9.7c1.4-2.9,5.7-4.4,4.2-8.7c-0.6-0.8-1.4-1.6-2.1-2.3c-0.7-0.7-1.5-1.5-2.3-2.2
			c-2-1.7-3.3-3.9-5.4-5.6c-1.5-0.6-3.3-0.6-4.7-1.6c-4-2.7-8.6-1.9-13-2.5c-3.6-0.5-7.3-0.1-10.9-0.1c-4.6-0.5-9.1,0.7-13.6,0.9
			c-0.5,0-1,0-1.4,0.1c-1.6,0.1-3.1,0.5-4.4,1.3c-1.6,1-2.8,2.6-4.3,3.7c-1.2,0.8-2.5,1.6-3.7,2.4c-1.5,0.9-2.4,2.2-2.9,3.8
			c-0.9,1.5-1.2,3.6-3.7,3.2c0-7.6,0.2-15.2-0.1-22.8c-0.1-3.3,0.5-4.1,4-4.1c47.3,0.2,94.6,0.1,141.9,0.1
			c33.9,0,67.7,0.1,101.6-0.1c3.5,0,4.1,0.9,4,4.1c-0.2,11.9-0.1,23.7-0.1,35.6c-1.2,0.5-2.1-0.2-2.9-0.9c-1.6-1.8-2.7-4.1-5-5.4
			c-6.8-3.7-14.5,0.6-15.5,8.9c-0.5,4.5-0.4,9.2,0.4,13.7c0.8-4.3,0.4-8.7,0.7-13.1c0.5-6.9,5.5-10.8,11.7-9.2
			c4.2,1.1,6.1,4.2,6.8,8.2c0.2,3.6,0.3,7.2,0,10.8C761.6,532,762.7,534.1,765.5,535.6z"/>
		<path style="fill:#DCDCDC;" d="M679.7,546.5c-1.9-10.1-1.5-20.3,0.5-30.3c1.5-7.2,10-11.2,16.9-9c6.9,2.2,11.5,11.9,8.8,18.7
			c-3.3,8.4-11.1,14.1-20.3,8.1c-2.9-1.9-2.8-0.3-3,1.9c-0.2,3.6,0.9,7.3-1,10.7C681,546.5,680.4,546.5,679.7,546.5z"/>
		<path style="fill:#EAEAEA;" d="M765.5,535.6c-3.7,0.5-5.4-0.6-5.1-4.7c0.4-4.4,0.1-8.8,0.1-13.1c2.7,0.4,2.1,2.6,2.3,4.2
			c0.3,2.8,0.1,5.6,0.1,7.9c1-4.7-0.9-10,0.6-15.1c0.7,0.3,1.3,0.7,2,1C765.5,522.4,765.5,529,765.5,535.6z"/>
		<path style="fill:#237412;" d="M518.1,508.4c-1.7-0.8-1.8-3.4-4-3.6c0-0.7,0-1.3,0-2c1.4-1,2.5-2.2,3-3.9c0.5-0.7,0.8-1.6,2-1.3
			c0.3,0.3,0.5,0.7,0.5,1.2c0,1.3-1,2.3-1.2,3.5c-0.2,1.7,0.8,3.2,0.4,4.9C518.7,507.8,518.5,508.1,518.1,508.4z"/>
		<path style="fill:#2BC808;" d="M619.7,523.6c-0.4,1.2-0.8,2.5-1.3,3.7c-2.6,6-8.2,9.6-14,8.9c-6-0.8-11.7-6.3-12-12.7
			c-0.4-7.9-0.1-15.8-0.2-23.7c0-1.2,0-2.4,1.6-2.5c1.8-0.1,2.1,1.2,2,2.7c0,3.4,0,6.8,0,10.4c11.4-6.2,19.1-4,23.1,6.2
			c0.3,0.8,0.5,1.5,0.8,2.3C621.3,520.4,621.2,522,619.7,523.6z"/>
		<path style="fill:#DCDCDC;" d="M737.5,521.1c0.1,7.5-7,15.4-13.9,15.5c-6.9,0-14-7.7-14-15.3c0-7.5,6.3-14.4,13.4-14.4
			C730.9,506.7,737.4,513.2,737.5,521.1z"/>
		<path style="fill:#DDDDDD;" d="M651.8,518c0-1.7-0.2-3.3,0-4.9c0.3-2-1.3-5.6,2.1-5.6c2.9,0,1.7,3.4,1.8,5.3
			c0.2,3.6,0,7.3,0.1,10.9c0.1,5.5,3.1,8.8,7.9,8.8c3.8,0,7.9-4.2,8-8.7c0.2-4.6,0-9.2,0.1-13.9c0-1.3-0.3-2.9,1.7-2.9
			c1.4,0,2.1,1.1,2.1,2.3c-0.2,5.9,1,11.9-0.9,17.7c-2,6.1-7.3,10-12.5,9.4c-6-0.8-10.4-6.2-10.5-13
			C651.7,521.6,651.7,519.8,651.8,518z"/>
		<path style="fill:#2EC90B;" d="M633.8,531.9c4.7,0,8.5,0,12.3,0c1.5,0,2.8,0.2,2.6,2.1c-0.1,1.6-1.4,1.6-2.6,1.6
			c-4.3,0-8.6,0-13,0c-4.6,0-5.4-1.4-2.9-5.3c3.6-5.6,7.3-11,11-16.5c0.4-0.7,0.9-1.4,1.9-3c-3.6,0-6.4,0.1-9.3,0
			c-1.6-0.1-4.3,1-4.2-1.9c0.1-2.7,2.8-1.6,4.4-1.7c3.1-0.2,6.3-0.1,9.5,0c1.4,0,3.3-0.6,4,1.1c0.7,1.6-0.1,3.1-1.1,4.6
			C642.4,518.8,638.5,524.9,633.8,531.9z"/>
		<path style="fill:#DDDDDD;" d="M763.5,514.7c1.8,5.8,0.7,11.7,0.9,17.5c0,1-0.2,2.1-1.5,2.1c-1.3,0-1.3-1.2-1.4-2.2
			c-0.6-4.8,1.1-9.7-1-14.4c-2-6-4.3-7.6-9.6-6.9c-3.9,0.5-6.3,3.9-6.3,9.2c0,4.1,0,8.3,0,12.4c0,1.3,0.2,2.9-1.7,3
			c-2.2,0.2-2.2-1.5-2.2-3c0-4,0-7.9,0-11.9c0-7,3.8-12.4,9.2-13.6C755.8,505.7,760.1,508.1,763.5,514.7z"/>
		<path style="fill:#54FD0C;" d="M524,492.7c1.2-1.3,2.5-2.6,3.7-3.8c1.5-0.5,3.1-0.3,4.5-0.8c11.5-0.5,23-1,34.5-0.1
			c1.9,0.2,4-0.3,5.5,1.5c0.2,0.5,0.3,1,0.3,1.6c-1,2.2-3.5,1.5-5.1,2.6c-1.6,0.3-3-0.3-4.5-0.8c-3.1-1-6.3-0.4-9.4-0.4
			c-7.8,0.4-15.7-1-23.4,1.1c-1.5,0.5-3.1,1-4.7,1.1c-0.5,0-1-0.2-1.5-0.5C523.6,493.7,523.6,493.2,524,492.7z"/>
		<path style="fill:#4AF507;" d="M575.9,521c-0.6,0.9-1.2,1.8-1.9,2.7c0.4,1.4-0.9,2-1.5,2.8c-2.3,2.9-4.8,5.5-8.5,6.6
			c-1.5-1.5-3.8-0.2-5.3-1.5c2.8-6,6.8-10.9,12.4-14.6C573.3,517.7,577.9,515.6,575.9,521z"/>
		<path style="fill:#72F424;" d="M572,491.9c0.2-3.4-2.3-2.9-4.4-2.9c-11.8,0-23.7-0.1-35.5-0.1c-0.4-0.5-0.4-0.9,0-1.3
			c0.4-0.1,0.7-0.1,1.1-0.2c5,0.7,9.8-1.4,14.8-1c7.3-0.8,14.6,0.1,21.8,1c1.4,0.2,3.1,0.3,3.4,2.3c0.4,0.7,0.5,1.4,0.2,2.1
			C572.9,492.1,572.5,492.2,572,491.9z"/>
		<path style="fill:#C7C8C7;" d="M527.1,523.6c0.7,0,1.3,0,2-0.1c0.7-0.4,1.3-0.5,2.1-0.2c0.8,0.6,1.3,1.4,1.5,2.4
			c0.2,3.7-3.4,1.4-4.9,3.1c2.3,3.7,6.9,4.5,9.9,7.4c0.6,0.8,1.1,1.6,0.4,2.6c-3,0.6-5-2-7.6-2.4c-2.5-1-4.5-2.7-6.9-4
			c-2.4-1.3-3.9-3.5-2.9-6.2C521.6,523.4,524.1,522.5,527.1,523.6z"/>
		<path style="fill:#F4F4F4;" d="M527.1,523.6c-2,1-5.5,0.4-5.7,3.5c-0.2,2.9,2.2,4.4,4.7,5.5c1.7,0.8,3.4,1.9,5,2.9
			c0.8,1.4,4.3,0.9,3.1,3.9c-5.1-2.3-10.2-4.8-14.3-8.7c-2.3-2.1-2.7-4.8-0.3-6.9C521.7,522,524.4,520,527.1,523.6z"/>
		<path style="fill:#EFEFEF;" d="M575.9,524.5c1.8-2.4,3.8-2.5,5.8-0.5c1.9,1.9,2,4.5,0,6.1c-5.8,4.7-11.8,9.4-19.6,10.4
			c-0.7-1.1,0-1.7,0.7-2.4c0.4-0.2,0.8-0.4,1.3-0.6c3.1-0.9,5.8-2.5,8.1-4.7c0.3-0.3,0.7-0.6,1.1-0.8
			C579.2,529.3,579.5,528.6,575.9,524.5z"/>
		<path style="fill:#1A5111;" d="M555.1,542.6c-1.9,1-3.5,3.4-6,0.9c-1.4-1-3.6-1.5-3.2-4c1.6-1.3,3.9,0.1,5.4-1.5
			c0.7-0.5,1.3-1.1,2-1.7c0.3-0.3,0.7-0.5,1.1-0.7c3-0.6,5.8-1.8,8.8-2.2c0.4,0.6,0.5,1.2,0.4,1.9c-0.6,1.5-1.9,2.5-3,3.6
			C558.9,540.5,556.8,541.3,555.1,542.6z"/>
		<path style="fill:#ADE99F;" d="M622.1,506.9c3.2-0.7,4.9,0.1,4.8,3.9c-0.2,7-0.1,14.1-0.1,21.1c0,1.2,0.5,2.7-1.2,3.4
			c-1.8-2.3-1.1-5-1.2-7.5c-0.1-5.3,0-10.7-0.1-16c0,0.1-0.2-0.3-0.2-0.3s-0.1,0.4-0.1,0.4c0,6,0.1,11.9,0,17.8c0,1.9,0.3,4-1.2,5.6
			c-0.4,0.1-0.7,0.1-1.1,0.2C620.9,526,620.5,516.4,622.1,506.9z"/>
		<path style="fill:#44CE25;" d="M624.8,507.8c1.9,2.3,0.9,5,0.9,7.4c0.1,6.7-0.1,13.4-0.1,20.1c-0.9,0-1.7,0-2.6,0
			c-0.1-8.4-0.1-16.7-0.2-25.1c0-0.9-0.2-2,1-2.5c1.2,8.8,0,17.6,0.5,24.9C624.8,525.4,623.6,516.6,624.8,507.8z"/>
		<path style="fill:#25A20D;" d="M575.9,521c0.4-4.6-3.9-1.4-5.2-3.1c-0.9-1.4-0.1-2.8,0.1-4.2c0.3-0.3,0.7-0.5,1.1-0.6
			c2.2-0.1,4.6,1.2,6.6-0.8c1.1-0.7,2.1-1.6,3.5-2c0.5,0,0.9,0.2,1.2,0.5C581.2,514.6,579.1,518.2,575.9,521z"/>
		<path style="fill:#B5F651;" d="M527.8,520.8c-0.3-0.3-0.6-0.5-0.9-0.8c-0.2-0.6-0.4-1.2-0.7-1.8c-0.4-1.2-1.1-2.2-1.8-3.2
			c-0.5-1.1-1.8-1.9-1.7-3.3c0.5-1.3,1.2-2.4,2.4-3.2c2.4,0.1,2.9,1.9,3.4,3.7c0.1,1.2,0.1,2.5,1.9,2.2c0.9,0.2,1.6,0.7,2.2,1.4
			c0.7,1.4,2.5,2.6,1,4.5C531.9,521.4,529.8,520.6,527.8,520.8z"/>
		<path style="fill:#CDCDCD;" d="M575.9,524.5c2.1,0.2,4.4,0.6,3.9,3.3c-0.7,3.4-3.2,5-6.7,4.9c-1.1-2,1.5-2.5,1.6-4
			c-0.6-1.3-4.2,0.1-2.8-3c0.7-0.7,1.4-1.3,2.1-2C574.7,524,575.3,524.2,575.9,524.5z"/>
		<path style="fill:#F5FCF4;" d="M622.1,506.9c-0.1,9.5-0.1,19.1-0.2,28.6c-2.1-1.9-0.8-4.3-1.1-6.4c-0.3-1.8,0.7-4-1.1-5.5
			c0-1.6,0-3.2,0-4.8c2.1-1.9,0.8-4.3,1.2-6.5C621.2,510.5,619.9,508.3,622.1,506.9z"/>
		<path style="fill:#A4A4A3;" d="M545.8,539.6c1.1,1.3,2.2,2.6,3.3,3.9c-1.8,0.2-3.4-0.2-5-1c-2.1-1.2-4.7-1.5-6-4
			c-0.4-0.6-0.7-1.3-1.1-1.9c2.2-1.6,4.1,0.8,6.2,0.4C544.6,537.4,545.7,538,545.8,539.6z"/>
		<path style="fill:#53E81B;" d="M572,491.9c0.3,0,0.6,0,0.9,0c1.5-1,3.1-1.8,4.9-1c1.7,1.9,3.4,3.9,5.2,5.8
			c-0.1,2.8-1.8,1.5-3.1,1.3c-1.9-2.2-4-3.9-7.2-2.6c-0.7-0.2-1.2-0.7-1.5-1.4C571.2,493.2,571.4,492.6,572,491.9L572,491.9z"/>
		<path style="fill:#30851C;" d="M583.2,510.9c-0.4,0-0.9-0.1-1.3-0.1c-0.3-0.4-0.3-1.1,0-1.3c2.4-1,0-1.2-0.2-1.7
			c-0.1-1.7,1.3-2.1,2.3-2.8c0.9-0.6,1.6-1.4,1.8-2.4c0.2-0.6,0.5-1.2,1-1.6c1.8,1.1,2.4,2.5,0.8,4.3
			C586.2,507.2,584.7,509,583.2,510.9z"/>
		<path style="fill:#D8D8D8;" d="M538.1,538.5c2.2,1.1,4.3,2.2,6,4c-3.7,0.4-6.2-3.2-9.9-3c-0.1-2.1-2.6-2.2-3.1-3.9
			C533.9,535.5,535.4,538.4,538.1,538.5z"/>
		<path style="fill:#58E021;" d="M530.7,523.7c-0.6,0-1.1-0.1-1.7-0.1c-0.1-0.6-0.2-1.2-0.3-1.8c1.8-2.2,4.5-0.6,6.6-1.6
			c2.4,0.6,3.8,2.1,4.5,4.4c0.1,0.7,0,1.4-0.4,2.1c-1.4,0.8-2.1-0.5-3-1.1C534.8,523.7,532.4,524.7,530.7,523.7z"/>
		<path style="fill:#31C90E;" d="M626.1,500.5c-0.1,1.6,0.3,3.5-1.9,3.3c-2.1-0.2-1.5-2.1-1.6-3.4c0-1.4-0.3-3.3,1.9-3.1
			C626.7,497.4,625.9,499.4,626.1,500.5z"/>
		<path style="fill:#BEBEBE;" d="M555.1,542.6c0.9-2.1,3.2-2.6,4.6-4.2c1.2-0.4,2.4-0.8,3.4,0.3c-0.3,0.6-0.7,1.3-1,1.9
			C559.8,541.5,557.7,542.9,555.1,542.6z"/>
		<path style="fill:#67E828;" d="M547.9,486.4c-4.9,0.5-9.7,2.6-14.8,1C538.1,486.5,543,485.8,547.9,486.4z"/>
		<path style="fill:#C6FE4B;" d="M523.1,511.7c0.5,1.1,2.1,1.5,2,3.1c-0.7,0.6-1.5,0.6-2.3,0.1c-1.6-1.3-2.8-2.9-3.6-4.7
			c0.2-0.9,0.9-0.9,1.7-0.9C522.1,509.7,523.3,510.1,523.1,511.7z"/>
		<path style="fill:#82F12F;" d="M535.2,520.6c-2,1.4-4.4,0.4-6.5,1.2c-0.3-0.3-0.6-0.6-0.9-0.9c1.8-2,4.3-0.7,6.4-1.4
			C534.9,519.5,535.3,519.8,535.2,520.6z"/>
		<path style="fill:#34E303;" d="M520.8,510c-0.5,0.1-1.1,0.1-1.6,0.2c-0.4-0.6-0.7-1.2-1.1-1.8c0.1-0.3,0.1-0.6,0.2-0.9
			c0.5-0.4,1.1-0.5,1.7-0.6c1.3,0.4,2.1-2.5,3.7-0.6c0.2,0.5,0.3,0.9,0.3,1.4C523.8,509.7,522.8,510.7,520.8,510z"/>
		<path style="fill:#1DA006;" d="M580,497c1,0.2,2.2,1.6,3.1-0.2c0.7,0.7,1.4,1.3,2,2c-0.3,0.5-0.7,0.8-1.2,1
			c-1.8,0.5-3.7,0.6-5.4-0.4C577,497.3,579.1,497.5,580,497z"/>
		<path style="fill:#4CDC20;" d="M524,492.7c0,0.5,0,0.9,0.1,1.4c-0.1,2.7-1.7,2.9-3.8,2.2c-0.5-0.5-0.5-0.9,0.1-1.2
			C521.7,494.5,522.1,492.4,524,492.7z"/>
		<path style="fill:#6AF23C;" d="M577.9,490.9c-1.6,0.3-3.3,0.7-4.9,1c0.1-0.8,0.1-1.6,0.2-2.3C574.5,490.9,576.7,489,577.9,490.9z"
			/>
		<path style="fill:#A5BF63;" d="M527,517.9c0,0.7,0,1.4,0,2.2c-1.3-1.4-2.5-2.9-3.8-4.4C525.5,514.6,526.1,516.6,527,517.9z"/>
		<path style="fill:#176F08;" d="M583.9,499.1c0.4-0.1,0.8-0.2,1.2-0.3c0.9,0.5,1.5,1.3,1.8,2.3c0,0.7,0,1.3,0,2
			c-0.4,0.1-0.8,0-1.2-0.2C584.7,501.7,583.5,500.8,583.9,499.1z"/>
		<path style="fill:#D1F35B;" d="M527,517.9c-1.3-0.7-2.1-2.2-3.8-2.2c-0.2-0.3-0.3-0.5-0.3-0.8c0.8,0,1.5-0.1,2.3-0.1
			C526.5,515.4,527.2,516.4,527,517.9z"/>
		<path style="fill:#FDFEFD;" d="M520.4,495.1c0,0.3,0,0.5,0.1,0.8c0.2,1.1-0.4,1.7-1.4,1.9c-0.6,0.4-1.2,0.9-1.9,1.3
			C517.2,496.9,518.4,495.7,520.4,495.1z"/>
		<path style="fill:#67E828;" d="M532.1,487.6c0,0.4,0,0.9,0,1.3c-1.4,0-2.9,0-4.3-0.1C528.9,487.6,530.5,487.5,532.1,487.6z"/>
		<path style="fill:#FEFEFE;" d="M702.6,521c0,6.1-4.7,11.7-9.8,11.5c-5.6-0.1-10.2-5.3-10.2-11.3c0-6.3,3.9-10.5,9.9-10.5
			C698.9,510.8,702.6,514.5,702.6,521z"/>
		<path style="fill:#1AA80B;" d="M519,497.7c0.5-0.6,0.9-1.2,1.4-1.9c1.6,0.3,2.9-0.3,3.6-1.8c0.4,0,0.7,0,1.1-0.1
			c1.1,2.6-0.8,3.6-2.5,4.7c-1.2,0.4-2.3,0.9-3.6,0.4C519.1,498.6,519,498.2,519,497.7z"/>
		<path style="fill:#043E00;" d="M520.1,507.8c-0.6-0.1-1.2-0.2-1.8-0.3c-0.1-1.9-1.6-3.6-1.1-5.6c0.5-0.6,1.2-0.7,1.9-0.3
			C520,503.5,521.8,505.4,520.1,507.8z"/>
		<path style="fill:#046300;" d="M519.1,501.9c-0.6,0-1.3,0-1.9,0c0.6-0.9,1.3-1.9,1.9-2.8c1-0.4,2.1-0.8,3.1-1.2
			c0.5,1.9-0.8,2.9-1.8,4.1C519.9,502.2,519.5,502.2,519.1,501.9z"/>
		<path style="fill:#FDFEFC;" d="M595.8,521.2c0-6.1,4.3-10.9,9.8-11c5.7-0.1,10.3,5,10.3,11.1c-0.1,6.1-4.9,11.3-10.4,11.1
			C600.2,532.3,595.8,527.2,595.8,521.2z"/>
		<path style="fill:#FEFEFE;" d="M733.6,521.2c0,5.8-4.6,11.3-9.5,11.3c-5.5,0.1-10.5-5.1-10.5-10.9c0-6.8,3.8-10.9,10.1-10.9
			C729.7,510.8,733.6,514.8,733.6,521.2z"/>
		<path style="fill:#FDFEFD;" d="M523.4,506.8c-0.2-0.3-0.3-0.5-0.5-0.8c-1.3-0.8-2.3-1.7-2.3-3.3c1.6-4.4,5.3-7,8.5-10
			c5.3-2.6,10.9-1.1,16.4-1.5c2.8-0.2,5.6-0.1,8.3-0.1c3.3,1.2,6.9-0.4,10.3,0.9c1.2,1.1,2.5,1.2,4,0.8c1.8-1,2.9-0.1,3.9,1.3
			c0.3,0.3,0.6,0.5,0.9,0.8c0.9,0.3,1.6,0.7,1.8,1.7c0.1,0.4,0,0.9-0.1,1.3c-0.3,0.8-0.7,1.6-1.3,2.2c-0.9,0.8-2,1.5-2.9,2.4
			c-1.4,1-2.8,2-4.2,2.9c-1.5,0.8-3.1,1.6-4.7,2.2c-1.5,0.4-2.8,1-4.1,1.9c-2.8,1.8-5.8,3.1-8.8,4.6c-1.6,0.6-3.3,1.1-4.9,1.9
			c-0.4,0.2-0.8,0.3-1.3,0.5c-1.8,0.3-3.5,0.9-5.2,1.2c-2.4,0.9-3.9-0.6-5.4-2c-0.5-0.3-1.1-0.6-1.6-0.9c-1.1-0.3-1.7-1-1.9-2.2
			c-0.8-1.5-1.3-3.2-3.1-3.8C523.2,509.2,523.8,507.6,523.4,506.8z"/>
		<path style="fill:#4CDC20;" d="M529,492.7c-2.2,3.7-6.3,5.9-8.1,10c-0.8,0.3-1.2,0.1-0.9-0.8c0-1.7,1.5-2.6,2.2-4
			c1.5-0.9,2.7-2.1,3-3.9C526.5,493.6,527.8,493.1,529,492.7z"/>
		<path style="fill:#5FF520;" d="M564,492c-3.4-0.3-6.8-0.6-10.3-0.9C557.2,491.2,560.7,489.9,564,492z"/>
		<path style="fill:#2BEC03;" d="M571.9,494.2c-1.3-0.4-2.6-0.9-3.9-1.3c0.9-2,2.3-1.9,4-0.9C571.9,492.7,571.9,493.5,571.9,494.2z"
			/>
		<path style="fill:#FDFDFD;" d="M531.7,515.9c1.8,0.7,3.5,1.8,5.5,0.9c2.2,1.1,4.1-0.1,5.9-1l0,0c2.1-0.5,4.2-1,6.2-1.9
			c1.3-0.5,2.6-1.2,4-1.3c3.4-1,6.9-0.8,10.4-1.5c1.8-0.4,3.6,0,5.2,0.7c1,0.4,1.8,1,2.1,2.1c1,1.5-0.2,2.7-0.4,4.1
			c-3.9,4.5-7.8,9.1-11.7,13.6c-0.6,2.7-2.9,3.6-5,4.8l-0.1,0c-1.3,0.8-2.6,0.3-3.9-0.2c-0.6-0.3-1.1-0.7-1.6-1.2
			c-1.5-1.6-2.8-3.4-4.7-4.7c-1.3-1.2-2.7-2.4-3.6-3.9c-0.3-0.6-0.5-1.2-0.9-1.8c-1-1.7-2.3-2.9-3.9-4c-0.3-0.4-0.6-0.7-1-1.1
			C533.4,518.3,532.5,517.1,531.7,515.9z"/>
		<path style="fill:#939791;" d="M571.9,525.6c0,0.2,0.1,0.4,0.2,0.5c4.9,2.1,4.9,2.1,1,6.6c0,0,0,0.1,0,0.1
			c-1.9,1.6-4.3,2.7-6.6,3.7c-1.3,0.3-2.6,0.3-3.6-0.9c0.1-0.6,0.2-1.2,0.3-1.8c0-0.8,0.7-0.9,1.2-1.2
			C566.9,530.3,569.4,528,571.9,525.6z"/>
		<path style="fill:#25BC08;" d="M564.4,532.6c-0.4,0.4-0.8,0.8-1.2,1.2c-2.7,2.2-5.9,2.5-9.2,2.6c1.7-1.6,3.3-3.2,5-4.8
			C560.8,531.9,562.9,530.5,564.4,532.6z"/>
		<path style="fill:#8A8F89;" d="M543.1,537.5c-2.4,2.1-3.9-1.4-6.1-0.9c-3.1-1.9-6.2-3.7-9.3-5.6c-1.1-0.7-2.7-1.2-2.2-2.8
			c0.5-1.7,2.3-1.5,3.8-1.6c0.9,0,2.3,1.5,2.6-0.7c1-0.9,1.7-0.2,2.5,0.5c0.2,0.4,0.4,0.8,0.5,1.3c-2.1,3.6-1.9,3.9,2.8,4.6
			c0.4-0.1,0.8-0.2,1.3-0.1c0.6,0.2,1.2,0.5,1.7,0.9c0.9,0.9,2.1,1.4,2.9,2.5C543.7,536.3,543.6,536.9,543.1,537.5z"/>
		<path style="fill:#1CB701;" d="M533.9,526.9c-0.7-0.3-1.3-0.7-2-1c-0.4-0.7-0.8-1.5-1.2-2.2c2.3-1,4.6-1.5,6.3,1.2
			C537,527,535.2,526.7,533.9,526.9z"/>
		<path style="fill:#CECECE;" d="M566.9,535.5c1.9-1.4,3.7-2.7,6.2-2.8c-1.9,3.7-5.3,5-9.1,5.7C563.4,536,566,536.6,566.9,535.5z"/>
		<path style="fill:#A3A3A3;" d="M566.9,535.5c-1,1-2,2-3,3c-0.3,0.1-0.6,0.1-0.8,0.1c-1.1-0.1-2.3-0.2-3.4-0.3
			c1.1-0.9,2.1-1.9,3.2-2.8C564.2,535.5,565.5,535.5,566.9,535.5z"/>
		<path style="fill:#AEF647;" d="M543.1,537.5c0-0.6-0.1-1.2-0.1-1.8c-0.8-0.9-1.4-2.3-3-2.1c-0.4-0.3-0.8-0.7-1.2-1
			c-1-0.8-2.6-1.4-1.8-3.2c2.5-0.1,2.3-2.4,3.1-3.8c1.3,1.3,2.7,2.6,4,3.9c1.6,1.6,1.5,5.1,4.9,4.8c0.4,0.4,0.7,0.7,1.1,1.1
			c0.6,1.1,2.5,1.3,2.1,3c-1.6,3.3-4.1,1.5-6.4,1.2C544.9,538.9,544,538.2,543.1,537.5z"/>
		<path style="fill:#507F42;" d="M552.2,538.4c-0.7-1-1.4-2-2.1-3c1.4-0.4,2.4,0.8,3.7,1C553.7,537.3,553.1,538,552.2,538.4z"/>
		<path style="fill:#25C600;" d="M624.8,507.8c0,8.5,0,17.1,0,25.6c-0.3,0-0.7,0-1,0c0-8.5,0-17.1,0-25.6
			C624.2,507.8,624.5,507.8,624.8,507.8z"/>
		<path style="fill:#0F5502;" d="M571.1,513.8c-0.8-0.5-1.6-0.9-2.4-1.4c0.3-1.1,1.2-1.5,2.2-1.8c3.8-0.4,6.9-3.7,11.1-2.8
			c3.1,1-0.3,2,0,3c-0.7,1.1-1.5,2-3,2c-2.4,1.9-5.1,0.4-7.6,0.6L571.1,513.8z"/>
		<path style="fill:#125D05;" d="M571.4,513.4c2.5-1.3,5.1-0.3,7.6-0.6C576.8,516.8,574,514.3,571.4,513.4z"/>
		<path style="fill:#56FC0A;" d="M523.4,506.8c0.6,0.7,1.1,1.5,1.7,2.2c-0.1,1.3-0.5,2.3-1.9,2.7c-0.8-0.6-1.5-1.1-2.3-1.7
			C522.8,509.8,523.2,508.4,523.4,506.8z"/>
		<path style="fill:#D6FE56;" d="M528.2,512.8c1,0.4,1.6,1.2,1.9,2.2c-0.1,1-0.4,1.7-1.4,0.8C527.8,515,526.3,514.1,528.2,512.8z"/>
		<path style="fill:#2DC90B;" d="M574,496.9c-0.4-0.6-0.8-1.2-1.2-1.9c3.2-2.3,5.8-2.1,7.2,2c-0.7,0.6-1.4,1.3-2.1,1.9
			c-0.2,0.1-0.4,0.2-0.6,0.3c-0.4-0.1-0.8-0.3-1-0.7C575.9,497.5,574.8,497.4,574,496.9z"/>
		<path style="fill:#47F302;" d="M582,507.8c-3.7,1.3-7.1,3.2-11.1,3.7c-2.2,0-4.4-0.2-6.6-0.1c-1,0.3-1.9,0.5-2.9,0
			c-0.4-0.3-0.7-0.7-0.7-1.2c0.3-1.6,1.7-2.2,2.8-3c1.2-1,3-1.2,4.1-2.4c1.2-1,2.5-1.5,4.1-1.1c3.3,1.4,6.7,0.7,10.1,0.7
			c1.2,0,3.1-1.1,3.2,1.4C583.9,506.5,582.9,507.1,582,507.8z"/>
		<path style="fill:#22C700;" d="M584.9,505.8c-3.1,0-6.2,0-9.3,0c-1.8,0-3.6,0.1-4.6-1.9c0.1-0.2,0.1-0.4,0.2-0.7
			c0.4-0.6,1-0.9,1.8-0.9c1.1-0.5,1.4,2.6,2.9,0.7c3.1-0.7,6.2-0.5,9.4-0.3c0.2,0,0.5,0.1,0.7,0.1c0.3,0,0.6,0.1,0.9,0.2
			C586.8,504.4,586.2,505.4,584.9,505.8z"/>
		<path style="fill:#75EC25;" d="M540.1,525.6c0.5,1.4,1.1,2.9,1.7,4.6c-1.8-0.1-3.4-0.2-4.9-0.4c-0.4,0.2-0.8,0.1-1.3-0.1
			c-0.7-0.6-1-1.4-1-2.3c1.1-2.3,3.1,0.4,4.4-0.8c0-0.7,0-1.4,0.1-2.1C539.4,524.9,539.8,525.2,540.1,525.6z"/>
		<path style="fill:#18BE01;" d="M539,526.6c-0.7,2.2-3.3-0.6-4.1,1.4c-0.3,0.1-0.7,0-0.9-0.3c-0.1-0.3-0.1-0.6-0.1-0.9
			c0.5-1.4,2.3-1,3.1-2.1C537.6,525.4,538.3,526,539,526.6z"/>
		<path style="fill:#237412;" d="M520,501.9c0.3,0.3,0.6,0.5,0.9,0.8c0.6,1.1,1.3,2.2,1.9,3.3c-1,0.4-0.3,3.5-2.7,1.8
			c0.9-2.2-2.6-3.6-1-5.9C519.4,501.9,519.7,501.9,520,501.9z"/>
		<path style="fill:#0D5801;" d="M583.9,499.1c0.7,1.2,2.1,2.1,2,3.8c0,0,0,0,0,0c-3.4,0.8-6.7,0.8-10.1,0c-1-2.2,0.6-3,2.1-3.9
			c0,0,0,0,0,0C579.9,498.9,581.9,499,583.9,499.1z"/>
		<path style="fill:#58FE0E;" d="M560.9,509.9c0,0.3,0.1,0.6,0.1,0.9c-0.9,1.3-2.5,0.8-3.8,1.3c-1.4,0.5-3,0.6-4.3,1.5
			c-1.3,0.2-2.3,1.6-3.8,1.1c-0.6-0.3-1.3-0.3-1.6-1.1c3.2-1.6,6.3-3.2,9.5-4.8C558.6,508,560,507.8,560.9,509.9z"/>
		<path style="fill:#B9E29C;" d="M543.1,515.7c-1,3-3.8,2.3-6,2.6c-0.5,0.1-0.1-1,0.1-1.6C539.1,516.3,541,515.5,543.1,515.7z"/>
		<path style="fill:#246816;" d="M567.7,505.7c-0.8,1.5-2.6,1.3-3.8,2.1c-1.3,0.5-2.6,1.2-3.1-0.9c1.6-0.8,3.3-1.6,4.9-2.4
			C566.5,504.7,567.3,505,567.7,505.7z"/>
		<path style="fill:#063803;" d="M567.7,505.7c-0.9,0-1.6-0.3-2-1.2c1.4-0.9,2.8-1.9,4.2-2.8c0.9,0.4,1.4,1,1,2c0,0,0.1,0.3,0.1,0.3
			C569.9,504.6,568.8,505.1,567.7,505.7z"/>
		<path style="fill:#096104;" d="M570.9,503.7c-0.3-0.7-0.6-1.3-1-2c0.6-1.1,1.3-2,2.7-2c0.9-0.5,1.4,0,1.8,0.8
			c0.2,1.2-0.4,1.9-1.4,2.4C572.2,503.1,571.6,503.4,570.9,503.7z"/>
		<path style="fill:#4AC02B;" d="M560.9,506.9c0.8,1.2,2,0.9,3.1,0.9c-1,0.7-2,1.4-3.1,2c-1.2-0.8-2.5-1.1-4-1
			C558.1,507.8,559.3,507.1,560.9,506.9z"/>
		<path style="fill:#62A83B;" d="M547.5,513.6c0.5,0.4,1.1,0.7,1.6,1.1c-2,0.6-3.8,2.2-6,1C544.2,514.2,545.7,513.7,547.5,513.6z"/>
		<path style="fill:#1DA006;" d="M574,496.9c2.2-1.1,4-1.6,3,2c-0.3,0.4-0.7,0.6-1.2,0.6c-1.1-0.1-1.7-0.7-2.1-1.7
			C573.6,497.4,573.7,497.1,574,496.9z"/>
		<path style="fill:#14760C;" d="M573.7,497.8c0.8,0.4,1.5,0.8,2.3,1.2c0.3,1.6-0.4,2.2-1.9,2c-0.5-0.4-0.9-0.8-1.4-1.2
			C572.9,499.1,573.3,498.4,573.7,497.8z"/>
		<path style="fill:#D2FE5C;" d="M549.1,534.3c-5.7,2.5-3.5-3-4.9-4.8C546.5,530.4,547.6,532.6,549.1,534.3z"/>
		<path style="fill:#3BCD19;" d="M552.9,513.6c0.6-2.3,2.5-1.7,4.1-1.9c1.9-0.9,3.9-0.2,5.9-0.4c0.5,0,1,0.2,1.3,0.6
			C560.4,512.5,556.6,513,552.9,513.6z"/>
		<path style="fill:#35D20B;" d="M564,510.8c2.3,0.3,4.7-0.8,6.9,0.6c-0.7,0.3-1.5,0.6-2.2,0.9c-1.5-0.2-3.1-0.3-4.6-0.5
			c0,0-0.2-0.4-0.2-0.4c-0.2-0.2-0.2-0.4-0.1-0.5C563.8,510.9,563.9,510.8,564,510.8z"/>
		<path style="fill:#6F6F6F;" d="M534,527.8c0.3,0,0.6,0.1,0.9,0.3c0.4,0.6,0.7,1.1,1.1,1.7c0.8,0.9,1.5,1.8,2.1,2.9
			c-0.2,2.2-1.4,1.8-2.8,1c-1.9-1-3.4-2.5-4.6-4.3C531.2,527.6,533.9,530.5,534,527.8z"/>
		<path style="fill:#DDFE5D;" d="M540,533.6c0.1-0.9,0.3-1.7,1.5-1.2c1.6,0.6,1.6,1.9,1.5,3.3C541.6,535.5,540.6,534.9,540,533.6z"
			/>
		<path style="fill:#62695D;" d="M538.1,532.6c-1.2-0.6-2-1.5-2.1-2.9c0.3,0,0.6,0,0.9,0c0.6,0.9,1.3,1.9,1.9,2.8
			C538.6,532.6,538.3,532.6,538.1,532.6z"/>
		<path style="fill:#2B9806;" d="M574,500.9c0.6-0.7,1.3-1.3,1.9-2c0.4,0,0.7,0,1.1-0.1c0.3,0,0.6,0,0.9,0c-0.7,1-1.4,2-2,3
			c-0.5,0.6-0.2,1.6-0.9,2c-1.3,1-1.1-1.1-2-1C573.3,502.2,573.6,501.6,574,500.9z"/>
		<path style="fill:#30E503;" d="M564,510.8c0,0.2-0.1,0.5-0.2,0.7c-2.3,0.1-4.6,0.1-6.9,0.2c1.1-1.3,2.6-0.8,4-1
			C562,510.8,563,510.8,564,510.8z"/>
		<path style="fill:#176F08;" d="M575,503.9c0-0.8,0.2-1.6,0.9-2c3.2,2,6.7,0.5,10,1C582.4,504.9,578.6,503.3,575,503.9z"/>
	</g>
</g>
</svg>
